<?xml version="1.0" standalone="no"?>
<!DOCTYPE svg PUBLIC "-//W3C//DTD SVG 20010904//EN"
 "http://www.w3.org/TR/2001/REC-SVG-20010904/DTD/svg10.dtd">
<svg version="1.0" xmlns="http://www.w3.org/2000/svg"
 width="375.000000pt" height="375.000000pt" viewBox="0 0 375.000000 375.000000"
 preserveAspectRatio="xMidYMid meet">
<metadata>
Created by potrace 1.14, written by Peter Selinger 2001-2017
</metadata>
<g transform="translate(0.000000,375.000000) scale(0.100000,-0.100000)"
fill="#000000" stroke="none">
<path d="M1255 3604 c-20 -54 -23 -57 -74 -76 -58 -22 -57 -27 9 -51 41 -15
47 -21 66 -74 l20 -57 23 62 c15 40 29 62 40 63 9 0 33 8 55 18 l39 17 -56 19
c-54 18 -57 21 -78 77 -12 32 -22 58 -23 58 -1 0 -10 -25 -21 -56z"/>
<path d="M217 3561 l-29 -79 -78 -28 c-43 -16 -77 -31 -75 -35 3 -3 38 -18 79
-33 l75 -27 27 -75 c15 -41 30 -76 33 -79 4 -2 19 32 35 75 l28 78 79 29 c91
32 90 36 -15 73 l-63 23 -29 78 c-16 44 -31 79 -34 79 -3 0 -18 -36 -33 -79z"/>
<path d="M1821 3181 c-318 -318 -331 -335 -301 -392 7 -12 145 -154 307 -316
284 -283 295 -293 333 -293 27 0 48 8 68 25 72 61 575 572 583 592 20 54 5 74
-282 361 -153 154 -290 289 -305 301 -17 13 -41 21 -65 21 -36 0 -50 -12 -338
-299z"/>
<path d="M957 3128 c-26 -33 -27 -48 -2 -48 8 0 36 -23 62 -52 26 -28 282
-286 567 -572 l520 -520 -57 -50 c-31 -28 -236 -230 -456 -449 -354 -352 -402
-397 -430 -397 -27 0 -54 -23 -206 -175 -198 -199 -200 -202 -136 -266 29 -29
47 -39 71 -39 l33 0 -6 -59 c-5 -64 -40 -150 -81 -204 -31 -40 -32 -47 -7 -74
16 -17 29 -19 97 -17 44 2 125 5 182 7 84 4 109 8 130 24 39 29 74 124 77 208
5 109 -7 148 -69 239 -69 100 -72 128 -20 186 24 26 36 50 36 68 0 22 67 95
406 438 224 226 421 427 437 447 44 54 59 55 105 8 22 -23 40 -44 40 -49 0 -4
182 -189 405 -412 330 -330 403 -408 399 -425 -4 -15 7 -36 35 -70 57 -69 55
-93 -14 -187 -60 -83 -78 -138 -74 -228 4 -98 42 -205 81 -229 22 -13 80 -18
280 -23 107 -2 119 0 133 17 19 26 20 23 -20 85 -44 68 -72 142 -76 200 -4 46
-4 46 44 49 28 2 97 76 97 104 0 18 -44 69 -175 200 -151 151 -180 176 -209
179 -31 3 -87 55 -485 451 l-450 448 512 512 c282 282 535 539 564 570 29 31
59 57 67 57 29 0 26 19 -5 50 -31 29 -54 35 -54 14 -1 -12 -1134 -1139 -1145
-1139 -12 0 -1144 1128 -1145 1140 0 23 -35 14 -58 -17z m247 -2457 c40 -25
62 -63 74 -128 20 -110 -12 -245 -68 -290 -8 -7 -36 -13 -61 -13 -60 0 -99 34
-100 89 0 20 -2 59 -4 86 -8 126 -9 241 -2 253 16 25 25 11 21 -30 -5 -46 3
-91 34 -207 24 -87 63 -137 95 -120 18 10 18 12 -11 29 -42 26 -58 78 -69 216
-8 106 -1 134 34 134 14 0 40 -9 57 -19z m2002 -6 c8 -32 -1 -165 -16 -230
-13 -60 -32 -91 -60 -100 -11 -4 -18 -11 -15 -16 11 -16 41 -10 62 14 30 32
76 198 77 279 1 66 7 81 22 57 7 -13 7 -48 -2 -243 -7 -160 -22 -185 -107
-186 -39 0 -52 5 -71 25 -60 65 -80 250 -36 339 37 78 132 117 146 61z"/>
<path d="M485 2868 c-21 -57 -43 -108 -49 -114 -6 -6 -57 -28 -114 -49 -56
-21 -101 -39 -100 -40 2 -2 50 -21 108 -43 117 -44 112 -38 161 -174 16 -45
31 -83 33 -85 2 -2 20 43 41 99 21 57 43 108 49 114 6 7 57 29 114 49 56 20
102 38 102 40 0 1 -46 19 -102 40 -57 21 -108 43 -114 49 -6 6 -28 57 -49 114
-21 56 -39 102 -40 102 -1 0 -19 -46 -40 -102z"/>
<path d="M3037 2572 c-21 -3 -100 -75 -321 -297 -162 -161 -299 -303 -306
-315 -30 -56 -15 -75 289 -380 159 -158 298 -293 309 -299 32 -17 77 -13 106
10 55 43 579 575 586 595 5 12 7 30 5 40 -2 11 -4 24 -4 30 -1 17 -579 593
-609 607 -15 7 -40 11 -55 9z"/>
<path d="M931 2270 c-179 -178 -303 -310 -307 -325 -3 -14 -3 -36 0 -50 8 -30
593 -619 622 -627 50 -12 80 13 376 309 312 313 323 327 293 382 -7 14 -146
158 -307 319 -291 290 -294 292 -336 292 -41 0 -44 -2 -341 -300z"/>
<path d="M2116 1688 c-11 -6 -149 -141 -307 -299 -306 -306 -319 -323 -288
-380 6 -13 142 -154 300 -312 285 -285 313 -308 366 -299 30 5 619 595 625
627 3 14 3 36 1 49 -3 14 -124 143 -307 325 -280 280 -304 301 -336 301 -19 0
-44 -6 -54 -12z"/>
</g>
</svg>
